<svg aria-roledescription="er" viewBox="0 0 463.61541748046875 293" style="max-width: 463.615px; background-color: white;" xmlns:xlink="http://www.w3.org/1999/xlink" xmlns="http://www.w3.org/2000/svg" width="100%" id="mermaid-0"><style>#mermaid-0{font-family:"trebuchet ms",verdana,arial,sans-serif;font-size:16px;fill:#000000;}#mermaid-0 .error-icon{fill:#552222;}#mermaid-0 .error-text{fill:#552222;stroke:#552222;}#mermaid-0 .edge-thickness-normal{stroke-width:2px;}#mermaid-0 .edge-thickness-thick{stroke-width:3.5px;}#mermaid-0 .edge-pattern-solid{stroke-dasharray:0;}#mermaid-0 .edge-pattern-dashed{stroke-dasharray:3;}#mermaid-0 .edge-pattern-dotted{stroke-dasharray:2;}#mermaid-0 .marker{fill:#000000;stroke:#000000;}#mermaid-0 .marker.cross{stroke:#000000;}#mermaid-0 svg{font-family:"trebuchet ms",verdana,arial,sans-serif;font-size:16px;}#mermaid-0 .entityBox{fill:#cde498;stroke:#13540c;}#mermaid-0 .attributeBoxOdd{fill:#ffffff;stroke:#13540c;}#mermaid-0 .attributeBoxEven{fill:#f2f2f2;stroke:#13540c;}#mermaid-0 .relationshipLabelBox{fill:hsl(78.1578947368, 58.4615384615%, 84.5098039216%);opacity:0.7;background-color:hsl(78.1578947368, 58.4615384615%, 84.5098039216%);}#mermaid-0 .relationshipLabelBox rect{opacity:0.5;}#mermaid-0 .relationshipLine{stroke:#000000;}#mermaid-0 .entityTitleText{text-anchor:middle;font-size:18px;fill:#000000;}#mermaid-0 :root{--mermaid-font-family:"trebuchet ms",verdana,arial,sans-serif;}</style><g/><defs><marker orient="auto" markerHeight="18" markerWidth="18" refY="9" refX="0" id="ONLY_ONE_START"><path d="M9,0 L9,18 M15,0 L15,18" fill="none" stroke="gray"/></marker></defs><defs><marker orient="auto" markerHeight="18" markerWidth="18" refY="9" refX="18" id="ONLY_ONE_END"><path d="M3,0 L3,18 M9,0 L9,18" fill="none" stroke="gray"/></marker></defs><defs><marker orient="auto" markerHeight="18" markerWidth="30" refY="9" refX="0" id="ZERO_OR_ONE_START"><circle r="6" cy="9" cx="21" fill="white" stroke="gray"/><path d="M9,0 L9,18" fill="none" stroke="gray"/></marker></defs><defs><marker orient="auto" markerHeight="18" markerWidth="30" refY="9" refX="30" id="ZERO_OR_ONE_END"><circle r="6" cy="9" cx="9" fill="white" stroke="gray"/><path d="M21,0 L21,18" fill="none" stroke="gray"/></marker></defs><defs><marker orient="auto" markerHeight="36" markerWidth="45" refY="18" refX="18" id="ONE_OR_MORE_START"><path d="M0,18 Q 18,0 36,18 Q 18,36 0,18 M42,9 L42,27" fill="none" stroke="gray"/></marker></defs><defs><marker orient="auto" markerHeight="36" markerWidth="45" refY="18" refX="27" id="ONE_OR_MORE_END"><path d="M3,9 L3,27 M9,18 Q27,0 45,18 Q27,36 9,18" fill="none" stroke="gray"/></marker></defs><defs><marker orient="auto" markerHeight="36" markerWidth="57" refY="18" refX="18" id="ZERO_OR_MORE_START"><circle r="6" cy="18" cx="48" fill="white" stroke="gray"/><path d="M0,18 Q18,0 36,18 Q18,36 0,18" fill="none" stroke="gray"/></marker></defs><defs><marker orient="auto" markerHeight="36" markerWidth="57" refY="18" refX="39" id="ZERO_OR_MORE_END"><circle r="6" cy="18" cx="9" fill="white" stroke="gray"/><path d="M21,18 Q39,0 57,18 Q39,36 21,18" fill="none" stroke="gray"/></marker></defs><path style="stroke: gray; fill: none;" marker-start="url(#ZERO_OR_MORE_START)" marker-end="url(#ONLY_ONE_END)" d="M110.48084782979575,75.5L104.40655064104072,85.58333333333333C98.33225345228571,95.66666666666667,86.18365907477566,115.83333333333333,80.10936188602064,136C74.03506469726562,156.16666666666666,74.03506469726562,176.33333333333334,74.03506469726562,186.41666666666666L74.03506469726562,196.5" class="er relationshipLine"/><path style="stroke: gray; fill: none;" marker-start="url(#ZERO_OR_MORE_START)" marker-end="url(#ONLY_ONE_END)" d="M153.83760999196983,75.5L167.19356547589283,85.58333333333333C180.54952095981582,95.66666666666667,207.26143192766185,115.83333333333333,229.8164979085002,134.25C252.3715638893386,152.66666666666666,270.7697848831694,169.33333333333334,279.9688953800848,177.66666666666666L289.16800587700016,186" class="er relationshipLine"/><path style="stroke: gray; fill: none;" marker-start="url(#ZERO_OR_MORE_START)" marker-end="url(#ONLY_ONE_END)" d="M387.18736267089844,86L387.18736267089844,94.33333333333333C387.18736267089844,102.66666666666667,387.18736267089844,119.33333333333333,382.73103468515865,136C378.2747066994189,152.66666666666666,369.36205072793945,169.33333333333334,364.90572274219966,177.66666666666666L360.4493947564599,186" class="er relationshipLine"/><g transform="translate(271.3458709716797,186 )" id="entity-habits-3dcdce2e-82d3-4e8e-bd06-d57a4086548b"><rect height="87" width="131.6829833984375" y="0" x="0" class="er entityBox"/><text style="dominant-baseline: middle; text-anchor: middle; font-size: 12px;" transform="translate(65.84149169921875,12)" y="0" x="0" id="text-entity-habits-3dcdce2e-82d3-4e8e-bd06-d57a4086548b" class="er entityLabel">habits</text><rect height="21" width="54.113128662109375" y="24" x="0" class="er attributeBoxOdd"/><text style="dominant-baseline: middle; font-size: 10.2px;" transform="translate(5,34.5)" y="0" x="0" id="text-entity-habits-3dcdce2e-82d3-4e8e-bd06-d57a4086548b-attr-1-type" class="er entityLabel">String</text><rect height="21" width="53.774871826171875" y="24" x="54.113128662109375" class="er attributeBoxOdd"/><text style="dominant-baseline: middle; font-size: 10.2px;" transform="translate(59.113128662109375,34.5)" y="0" x="0" id="text-entity-habits-3dcdce2e-82d3-4e8e-bd06-d57a4086548b-attr-1-name" class="er entityLabel">id</text><rect height="21" width="23.79498291015625" y="24" x="107.88800048828125" class="er attributeBoxOdd"/><text style="dominant-baseline: middle; font-size: 10.2px;" transform="translate(112.88800048828125,34.5)" y="0" x="0" id="text-entity-habits-3dcdce2e-82d3-4e8e-bd06-d57a4086548b-attr-1-key" class="er entityLabel">PK</text><rect height="21" width="54.113128662109375" y="45" x="0" class="er attributeBoxEven"/><text style="dominant-baseline: middle; font-size: 10.2px;" transform="translate(5,55.5)" y="0" x="0" id="text-entity-habits-3dcdce2e-82d3-4e8e-bd06-d57a4086548b-attr-2-type" class="er entityLabel">String</text><rect height="21" width="53.774871826171875" y="45" x="54.113128662109375" class="er attributeBoxEven"/><text style="dominant-baseline: middle; font-size: 10.2px;" transform="translate(59.113128662109375,55.5)" y="0" x="0" id="text-entity-habits-3dcdce2e-82d3-4e8e-bd06-d57a4086548b-attr-2-name" class="er entityLabel">title</text><rect height="21" width="23.79498291015625" y="45" x="107.88800048828125" class="er attributeBoxEven"/><text style="dominant-baseline: middle; font-size: 10.2px;" transform="translate(112.88800048828125,55.5)" y="0" x="0" id="text-entity-habits-3dcdce2e-82d3-4e8e-bd06-d57a4086548b-attr-2-key" class="er entityLabel"/><rect height="21" width="54.113128662109375" y="66" x="0" class="er attributeBoxOdd"/><text style="dominant-baseline: middle; font-size: 10.2px;" transform="translate(5,76.5)" y="0" x="0" id="text-entity-habits-3dcdce2e-82d3-4e8e-bd06-d57a4086548b-attr-3-type" class="er entityLabel">DateTime</text><rect height="21" width="53.774871826171875" y="66" x="54.113128662109375" class="er attributeBoxOdd"/><text style="dominant-baseline: middle; font-size: 10.2px;" transform="translate(59.113128662109375,76.5)" y="0" x="0" id="text-entity-habits-3dcdce2e-82d3-4e8e-bd06-d57a4086548b-attr-3-name" class="er entityLabel">createdAt</text><rect height="21" width="23.79498291015625" y="66" x="107.88800048828125" class="er attributeBoxOdd"/><text style="dominant-baseline: middle; font-size: 10.2px;" transform="translate(112.88800048828125,76.5)" y="0" x="0" id="text-entity-habits-3dcdce2e-82d3-4e8e-bd06-d57a4086548b-attr-3-key" class="er entityLabel"/></g><g transform="translate(20,196.5 )" id="entity-days-10fda129-b4b8-4d0b-91a9-1386cd9f82ae"><rect height="66" width="108.07012939453125" y="0" x="0" class="er entityBox"/><text style="dominant-baseline: middle; text-anchor: middle; font-size: 12px;" transform="translate(54.035064697265625,12)" y="0" x="0" id="text-entity-days-10fda129-b4b8-4d0b-91a9-1386cd9f82ae" class="er entityLabel">days</text><rect height="21" width="54.113128662109375" y="24" x="0" class="er attributeBoxOdd"/><text style="dominant-baseline: middle; font-size: 10.2px;" transform="translate(5,34.5)" y="0" x="0" id="text-entity-days-10fda129-b4b8-4d0b-91a9-1386cd9f82ae-attr-1-type" class="er entityLabel">String</text><rect height="21" width="30.162017822265625" y="24" x="54.113128662109375" class="er attributeBoxOdd"/><text style="dominant-baseline: middle; font-size: 10.2px;" transform="translate(59.113128662109375,34.5)" y="0" x="0" id="text-entity-days-10fda129-b4b8-4d0b-91a9-1386cd9f82ae-attr-1-name" class="er entityLabel">id</text><rect height="21" width="23.79498291015625" y="24" x="84.275146484375" class="er attributeBoxOdd"/><text style="dominant-baseline: middle; font-size: 10.2px;" transform="translate(89.275146484375,34.5)" y="0" x="0" id="text-entity-days-10fda129-b4b8-4d0b-91a9-1386cd9f82ae-attr-1-key" class="er entityLabel">PK</text><rect height="21" width="54.113128662109375" y="45" x="0" class="er attributeBoxEven"/><text style="dominant-baseline: middle; font-size: 10.2px;" transform="translate(5,55.5)" y="0" x="0" id="text-entity-days-10fda129-b4b8-4d0b-91a9-1386cd9f82ae-attr-2-type" class="er entityLabel">DateTime</text><rect height="21" width="30.162017822265625" y="45" x="54.113128662109375" class="er attributeBoxEven"/><text style="dominant-baseline: middle; font-size: 10.2px;" transform="translate(59.113128662109375,55.5)" y="0" x="0" id="text-entity-days-10fda129-b4b8-4d0b-91a9-1386cd9f82ae-attr-2-name" class="er entityLabel">date</text><rect height="21" width="23.79498291015625" y="45" x="84.275146484375" class="er attributeBoxEven"/><text style="dominant-baseline: middle; font-size: 10.2px;" transform="translate(89.275146484375,55.5)" y="0" x="0" id="text-entity-days-10fda129-b4b8-4d0b-91a9-1386cd9f82ae-attr-2-key" class="er entityLabel"/></g><g transform="translate(74.03506469726562,30.5 )" id="entity-daysHabits-96437e1e-51be-4d8f-a7f8-7794b9300983"><rect height="45" width="100" y="0" x="0" class="er entityBox"/><text style="dominant-baseline: middle; text-anchor: middle; font-size: 12px;" transform="translate(50,12)" y="0" x="0" id="text-entity-daysHabits-96437e1e-51be-4d8f-a7f8-7794b9300983" class="er entityLabel">daysHabits</text><rect height="21" width="43.94526163736979" y="24" x="0" class="er attributeBoxOdd"/><text style="dominant-baseline: middle; font-size: 10.2px;" transform="translate(5,34.5)" y="0" x="0" id="text-entity-daysHabits-96437e1e-51be-4d8f-a7f8-7794b9300983-attr-1-type" class="er entityLabel">String</text><rect height="21" width="25.261545817057293" y="24" x="43.94526163736979" class="er attributeBoxOdd"/><text style="dominant-baseline: middle; font-size: 10.2px;" transform="translate(48.94526163736979,34.5)" y="0" x="0" id="text-entity-daysHabits-96437e1e-51be-4d8f-a7f8-7794b9300983-attr-1-name" class="er entityLabel">id</text><rect height="21" width="30.793192545572918" y="24" x="69.20680745442708" class="er attributeBoxOdd"/><text style="dominant-baseline: middle; font-size: 10.2px;" transform="translate(74.20680745442708,34.5)" y="0" x="0" id="text-entity-daysHabits-96437e1e-51be-4d8f-a7f8-7794b9300983-attr-1-key" class="er entityLabel">PK</text></g><g transform="translate(330.7593231201172,20 )" id="entity-habitWeekdays-3c81ffaa-182f-4a03-8dba-b0e960a43ff5"><rect height="66" width="112.8560791015625" y="0" x="0" class="er entityBox"/><text style="dominant-baseline: middle; text-anchor: middle; font-size: 12px;" transform="translate(56.42803955078125,12)" y="0" x="0" id="text-entity-habitWeekdays-3c81ffaa-182f-4a03-8dba-b0e960a43ff5" class="er entityLabel">habitWeekdays</text><rect height="21" width="36.947052001953125" y="24" x="0" class="er attributeBoxOdd"/><text style="dominant-baseline: middle; font-size: 10.2px;" transform="translate(5,34.5)" y="0" x="0" id="text-entity-habitWeekdays-3c81ffaa-182f-4a03-8dba-b0e960a43ff5-attr-1-type" class="er entityLabel">String</text><rect height="21" width="52.114044189453125" y="24" x="36.947052001953125" class="er attributeBoxOdd"/><text style="dominant-baseline: middle; font-size: 10.2px;" transform="translate(41.947052001953125,34.5)" y="0" x="0" id="text-entity-habitWeekdays-3c81ffaa-182f-4a03-8dba-b0e960a43ff5-attr-1-name" class="er entityLabel">id</text><rect height="21" width="23.79498291015625" y="24" x="89.06109619140625" class="er attributeBoxOdd"/><text style="dominant-baseline: middle; font-size: 10.2px;" transform="translate(94.06109619140625,34.5)" y="0" x="0" id="text-entity-habitWeekdays-3c81ffaa-182f-4a03-8dba-b0e960a43ff5-attr-1-key" class="er entityLabel">PK</text><rect height="21" width="36.947052001953125" y="45" x="0" class="er attributeBoxEven"/><text style="dominant-baseline: middle; font-size: 10.2px;" transform="translate(5,55.5)" y="0" x="0" id="text-entity-habitWeekdays-3c81ffaa-182f-4a03-8dba-b0e960a43ff5-attr-2-type" class="er entityLabel">Int</text><rect height="21" width="52.114044189453125" y="45" x="36.947052001953125" class="er attributeBoxEven"/><text style="dominant-baseline: middle; font-size: 10.2px;" transform="translate(41.947052001953125,55.5)" y="0" x="0" id="text-entity-habitWeekdays-3c81ffaa-182f-4a03-8dba-b0e960a43ff5-attr-2-name" class="er entityLabel">weekday</text><rect height="21" width="23.79498291015625" y="45" x="89.06109619140625" class="er attributeBoxEven"/><text style="dominant-baseline: middle; font-size: 10.2px;" transform="translate(94.06109619140625,55.5)" y="0" x="0" id="text-entity-habitWeekdays-3c81ffaa-182f-4a03-8dba-b0e960a43ff5-attr-2-key" class="er entityLabel"/></g><rect height="14" width="19.359375" y="125.74607849121094" x="71.46121978759766" class="er relationshipLabelBox"/><text style="text-anchor: middle; dominant-baseline: middle; font-size: 12px;" y="132.74607849121094" x="81.14090728759766" id="rel1" class="er relationshipLabel">day</text><rect height="14" width="26.6875" y="121.80790710449219" x="209.75257873535156" class="er relationshipLabelBox"/><text style="text-anchor: middle; dominant-baseline: middle; font-size: 12px;" y="128.8079071044922" x="223.09632873535156" id="rel2" class="er relationshipLabel">habit</text><rect height="14" width="26.6875" y="131.1707000732422" x="368.78204345703125" class="er relationshipLabelBox"/><text style="text-anchor: middle; dominant-baseline: middle; font-size: 12px;" y="138.1707000732422" x="382.12579345703125" id="rel3" class="er relationshipLabel">habit</text></svg>